<svg version="1.1" id="Layer_1" xmlns="http://www.w3.org/2000/svg" xmlns:xlink="http://www.w3.org/1999/xlink" x="0px" y="0px"
	 width="100%" viewBox="0 0 749 204" enable-background="new 0 0 749 204" xml:space="preserve">
<path fill="#101121" opacity="1.000000" stroke="none" 
	d="
M503.000000,205.000000 
	C335.333344,205.000000 168.166672,205.000000 1.000000,205.000000 
	C1.000000,137.000000 1.000000,69.000000 1.000000,1.000000 
	C250.666672,1.000000 500.333344,1.000000 750.000000,1.000000 
	C750.000000,69.000000 750.000000,137.000000 750.000000,205.000000 
	C667.833313,205.000000 585.666687,205.000000 503.000000,205.000000 
M184.115219,103.754890 
	C184.589508,100.126534 184.733948,96.411751 185.654144,92.900238 
	C186.266678,90.562744 184.224808,86.598518 188.465714,86.360428 
	C189.119644,86.323708 190.677002,90.889130 190.726318,93.348076 
	C191.223511,118.142311 191.504639,142.940979 191.817657,167.738754 
	C191.882095,172.844421 191.826996,177.951630 191.826996,183.130768 
	C198.700027,183.130768 204.757828,183.130768 210.807739,183.130768 
	C209.562958,131.582748 208.327377,80.415108 207.092896,29.293413 
	C191.932404,27.461935 177.483887,25.716471 162.783768,23.940607 
	C160.766556,47.645084 158.795914,70.802429 156.721649,95.177254 
	C155.565720,93.618896 155.126694,93.294304 155.070908,92.913536 
	C152.016891,72.075150 148.941513,51.239513 146.031677,30.380812 
	C145.627823,27.485851 144.947784,25.781315 141.599213,25.815773 
	C130.532410,25.929649 119.463707,25.858717 108.056274,25.858717 
	C107.173203,79.075058 106.312958,130.916397 105.446945,183.105164 
	C115.202179,183.531189 124.414085,183.933487 134.100250,184.356491 
	C133.308762,153.978302 132.530518,124.109123 131.751236,94.200035 
	C134.121552,93.671005 135.969620,93.258545 138.192581,92.762405 
	C141.886810,123.118401 145.509308,152.885025 149.182510,183.068314 
	C156.321198,182.698227 163.263916,182.405624 170.190552,181.894653 
	C171.064636,181.830154 172.269424,180.779953 172.608643,179.908981 
	C173.870941,176.667923 175.376297,173.382401 175.824661,169.986084 
	C178.697342,148.225494 181.313507,126.431038 184.115219,103.754890 
M361.159790,143.529297 
	C361.159790,156.637390 361.159790,169.745483 361.159790,183.175537 
	C371.722992,182.958710 380.888885,185.624893 390.288696,182.665894 
	C390.869751,163.452209 391.522217,144.679077 391.967407,125.901031 
	C392.171814,117.281128 390.101044,109.624138 381.919647,104.811844 
	C379.153015,103.184525 376.777588,100.892212 373.804413,98.577675 
	C376.776733,97.640038 379.182587,96.586479 381.695801,96.147400 
	C387.584808,95.118530 389.394775,90.701363 389.907501,85.846695 
	C390.901825,76.431900 391.357605,66.958839 391.967102,57.505459 
	C392.201935,53.863552 392.947052,50.068798 392.246887,46.587612 
	C390.247711,36.648266 379.102936,26.395666 368.849792,25.630810 
	C355.772705,24.655296 342.628235,24.542191 329.509338,24.185652 
	C323.417542,24.020092 317.317566,24.157381 311.577271,24.157381 
	C311.577271,77.469734 311.577271,130.110260 311.577271,182.777100 
	C322.839905,182.777100 333.902924,182.777100 344.897583,182.777100 
	C344.897583,158.525543 344.897583,134.668884 344.897583,110.303215 
	C347.253693,111.027931 349.132111,111.566452 350.984680,112.182739 
	C357.091644,114.214340 359.648438,117.652069 360.017059,124.129768 
	C360.366455,130.270325 360.776276,136.407425 361.159790,143.529297 
M625.847595,81.504395 
	C626.230164,108.144646 626.600708,134.785080 627.018372,161.424789 
	C627.051636,163.551010 627.006714,165.328232 624.319702,165.773743 
	C620.722656,166.370148 617.174194,167.282883 613.566040,167.775406 
	C612.283447,167.950470 610.319641,167.765488 609.634338,166.940826 
	C604.858948,161.194153 599.912170,155.412918 602.284973,146.961670 
	C602.635437,145.713577 602.464050,144.315552 602.510681,142.986053 
	C603.281372,121.038795 604.028687,99.090698 604.822510,77.144272 
	C605.423279,60.536423 606.082458,43.930691 606.727966,26.999779 
	C604.282593,26.310659 601.942322,25.261925 599.526794,25.042929 
	C592.077820,24.367580 584.605408,23.887403 577.132019,23.563917 
	C570.527527,23.278046 566.866699,26.918036 566.812073,33.319084 
	C566.789368,35.978828 566.517761,38.636620 566.500427,41.296215 
	C566.261536,77.947014 565.986877,114.597870 565.928528,151.249054 
	C565.923218,154.590591 566.971008,158.077667 568.186890,161.244888 
	C570.204956,166.501694 572.545959,171.666412 575.201111,176.629028 
	C576.098816,178.306885 578.220886,180.097870 580.022827,180.397476 
	C590.683228,182.169983 601.404114,183.598282 612.129395,184.945328 
	C614.363159,185.225861 616.786377,185.011475 618.974731,184.450104 
	C625.698120,182.725403 632.391602,180.851471 639.000305,178.734818 
	C640.650635,178.206253 642.572144,176.848236 643.285217,175.354172 
	C646.739197,168.116913 648.294128,160.623047 648.183044,152.343048 
	C647.628723,111.027702 647.679382,69.704254 647.500916,28.383732 
	C647.494751,26.955006 647.317383,25.527020 647.214844,24.026152 
	C640.341064,24.026152 633.900940,24.026152 626.934448,24.026152 
	C626.563782,42.975807 626.196716,61.739815 625.847595,81.504395 
M224.368988,110.727081 
	C222.306915,134.875275 220.244843,159.023483 218.185837,183.135742 
	C225.403214,183.135742 232.235046,183.135742 239.216232,183.135742 
	C241.066544,166.315155 242.843094,150.164948 244.659698,133.650742 
	C251.647110,134.078415 258.188110,134.478760 264.806183,134.883820 
	C265.507660,151.253067 266.186859,167.102798 266.885651,183.408890 
	C278.264679,182.902283 288.994263,182.424576 299.990021,181.935028 
	C299.600220,129.388794 296.931580,77.508560 291.893311,24.470379 
	C274.362457,24.470379 257.091644,24.468988 239.820847,24.471897 
	C237.269180,24.472328 235.578995,25.144285 235.182495,28.232681 
	C231.690094,55.434963 228.057953,82.619301 224.368988,110.727081 
M55.525146,22.791222 
	C47.065544,23.408075 38.587624,23.844597 30.152376,24.701256 
	C23.881474,25.338110 20.683605,29.461910 20.823654,35.723675 
	C21.073080,46.875671 21.176517,58.031635 21.510363,69.180870 
	C21.898251,82.134964 22.468306,95.083603 22.970163,108.321243 
	C37.423229,109.166130 51.576202,109.993469 65.251083,110.792862 
	C65.251083,124.155060 65.251083,136.589783 65.251083,149.465256 
	C58.134323,148.635468 51.639477,147.878189 44.882977,147.090393 
	C44.882977,139.051147 44.882977,131.592270 44.882977,124.013702 
	C36.820786,123.185524 29.081739,122.390549 21.470726,121.608719 
	C21.018854,122.589371 20.680597,123.012871 20.635916,123.465355 
	C19.083801,139.183807 17.262636,154.921906 21.217709,170.548187 
	C21.618053,172.129913 22.970053,173.720917 24.301634,174.776062 
	C32.737228,181.460434 42.630836,183.534317 53.135281,183.512650 
	C59.080746,183.500397 65.339157,184.687531 70.888786,183.206573 
	C77.154015,181.534683 84.190613,178.694061 88.215225,174.044800 
	C91.127647,170.680344 89.674263,163.537247 90.171013,158.079544 
	C90.201180,157.748047 90.291443,157.419937 90.300201,157.088852 
	C90.853294,136.179901 91.400810,115.270798 91.960266,93.925507 
	C76.239441,92.494087 61.787941,91.178238 46.905109,89.823112 
	C47.763832,77.991280 42.614891,66.591988 46.987461,55.175446 
	C52.104797,55.175446 56.695480,55.175446 61.606148,55.175446 
	C61.606148,61.635799 61.606148,67.763855 61.606148,74.468254 
	C71.263847,75.010475 80.633476,75.536530 91.001724,76.118652 
	C91.001724,63.004776 91.121529,50.380978 90.938507,37.761574 
	C90.872025,33.177254 85.603500,26.806772 81.086891,26.020428 
	C72.940414,24.602116 64.702965,23.706320 55.525146,22.791222 
M516.334106,183.128510 
	C527.432922,183.817490 538.494690,184.714050 548.881592,179.045975 
	C551.599487,177.562836 553.299805,176.523682 553.279297,172.968567 
	C553.214844,161.828232 553.751648,150.685440 553.772827,139.543060 
	C553.781128,135.145355 553.043762,130.746246 552.658386,126.486115 
	C546.207886,126.486115 540.650085,126.486115 534.793396,126.486115 
	C534.458618,133.751312 534.204956,140.717331 533.793457,147.674026 
	C533.516968,152.349991 531.054321,154.424515 526.391724,154.203430 
	C525.228516,154.148270 524.067383,154.046783 522.903931,154.004074 
	C505.840973,153.377609 505.680573,153.377167 505.893372,135.982681 
	C506.049988,123.179131 506.553345,110.374786 507.163544,97.583267 
	C507.755249,85.181084 508.680542,72.794823 509.468475,60.255379 
	C518.529846,60.255379 526.957825,60.255379 535.919922,60.255379 
	C535.919922,74.723022 535.919922,88.950455 535.919922,103.417351 
	C542.523743,103.072647 548.578491,102.756607 553.840332,102.481949 
	C553.840332,79.370522 553.864075,57.080219 553.785706,34.790287 
	C553.780579,33.337608 553.394470,30.986170 552.500488,30.586983 
	C547.723389,28.453848 542.807983,25.553257 537.793579,25.235538 
	C524.024048,24.363081 510.181274,24.641956 496.367371,24.479540 
	C495.400360,24.468172 494.144196,24.197306 493.507843,24.683010 
	C485.330872,30.924078 479.355042,39.102772 478.681183,49.302441 
	C476.982880,75.008072 476.283417,100.779396 475.151062,126.522964 
	C474.917511,131.832703 473.689575,137.256058 474.414215,142.417252 
	C475.841614,152.583572 478.178467,162.634750 480.494629,172.651337 
	C480.877380,174.306503 482.801941,176.126251 484.463043,176.878937 
	C494.258301,181.317551 504.487305,183.921524 516.334106,183.128510 
M401.952087,25.165831 
	C401.030670,25.876518 399.358887,26.532944 399.303009,27.306215 
	C398.684692,35.856976 398.317139,44.425873 397.874176,53.138931 
	C405.237030,53.887688 411.966492,54.572029 418.856049,55.272655 
	C417.907776,98.170341 416.968323,140.669479 416.032623,182.997528 
	C429.029572,182.997528 441.410889,182.997528 453.421692,182.997528 
	C453.421692,140.256409 453.421692,98.030769 453.421692,56.154175 
	C458.911438,56.154175 464.337372,56.154175 470.044922,56.154175 
	C470.794586,45.909473 471.529663,35.864571 472.312866,25.161652 
	C448.694733,25.161652 425.787109,25.161652 401.952087,25.165831 
M674.193665,127.533333 
	C674.193665,146.081421 674.193665,164.629501 674.193665,182.996735 
	C686.036743,182.996735 698.415344,182.996735 710.421753,182.996735 
	C710.421753,140.263062 710.421753,98.045769 710.421753,56.153702 
	C715.896606,56.153702 721.324585,56.153702 727.037354,56.153702 
	C727.797607,45.939499 728.545349,35.892933 729.271545,26.136816 
	C728.352417,25.641119 728.064636,25.350479 727.775940,25.349527 
	C704.831177,25.273777 681.886230,25.195793 658.941711,25.256674 
	C658.021790,25.259115 656.356750,26.541227 656.302368,27.315836 
	C655.701965,35.865303 655.352051,44.432365 654.927307,53.137745 
	C662.280334,53.893536 668.998718,54.584087 674.416016,55.140911 
	C674.416016,79.337830 674.416016,102.955742 674.193665,127.533333 
z"/>
<path fill="#F4CDE0" opacity="1.000000" stroke="none" 
	d="
M184.064621,104.201302 
	C181.313507,126.431038 178.697342,148.225494 175.824661,169.986084 
	C175.376297,173.382401 173.870941,176.667923 172.608643,179.908981 
	C172.269424,180.779953 171.064636,181.830154 170.190552,181.894653 
	C163.263916,182.405624 156.321198,182.698227 149.182510,183.068314 
	C145.509308,152.885025 141.886810,123.118401 138.192581,92.762405 
	C135.969620,93.258545 134.121552,93.671005 131.751236,94.200035 
	C132.530518,124.109123 133.308762,153.978302 134.100250,184.356491 
	C124.414085,183.933487 115.202179,183.531189 105.446945,183.105164 
	C106.312958,130.916397 107.173203,79.075058 108.056274,25.858717 
	C119.463707,25.858717 130.532410,25.929649 141.599213,25.815773 
	C144.947784,25.781315 145.627823,27.485851 146.031677,30.380812 
	C148.941513,51.239513 152.016891,72.075150 155.070908,92.913536 
	C155.126694,93.294304 155.565720,93.618896 156.721649,95.177254 
	C158.795914,70.802429 160.766556,47.645084 162.783768,23.940607 
	C177.483887,25.716471 191.932404,27.461935 207.092896,29.293413 
	C208.327377,80.415108 209.562958,131.582748 210.807739,183.130768 
	C204.757828,183.130768 198.700027,183.130768 191.826996,183.130768 
	C191.826996,177.951630 191.882095,172.844421 191.817657,167.738754 
	C191.504639,142.940979 191.223511,118.142311 190.726318,93.348076 
	C190.677002,90.889130 189.119644,86.323708 188.465714,86.360428 
	C184.224808,86.598518 186.266678,90.562744 185.654144,92.900238 
	C184.733948,96.411751 184.589508,100.126534 184.064621,104.201302 
z"/>
<path fill="#F4CDE0" opacity="1.000000" stroke="none" 
	d="
M361.159668,143.037674 
	C360.776276,136.407425 360.366455,130.270325 360.017059,124.129768 
	C359.648438,117.652069 357.091644,114.214340 350.984680,112.182739 
	C349.132111,111.566452 347.253693,111.027931 344.897583,110.303215 
	C344.897583,134.668884 344.897583,158.525543 344.897583,182.777100 
	C333.902924,182.777100 322.839905,182.777100 311.577271,182.777100 
	C311.577271,130.110260 311.577271,77.469734 311.577271,24.157381 
	C317.317566,24.157381 323.417542,24.020092 329.509338,24.185652 
	C342.628235,24.542191 355.772705,24.655296 368.849792,25.630810 
	C379.102936,26.395666 390.247711,36.648266 392.246887,46.587612 
	C392.947052,50.068798 392.201935,53.863552 391.967102,57.505459 
	C391.357605,66.958839 390.901825,76.431900 389.907501,85.846695 
	C389.394775,90.701363 387.584808,95.118530 381.695801,96.147400 
	C379.182587,96.586479 376.776733,97.640038 373.804413,98.577675 
	C376.777588,100.892212 379.153015,103.184525 381.919647,104.811844 
	C390.101044,109.624138 392.171814,117.281128 391.967407,125.901031 
	C391.522217,144.679077 390.869751,163.452209 390.288696,182.665894 
	C380.888885,185.624893 371.722992,182.958710 361.159790,183.175537 
	C361.159790,169.745483 361.159790,156.637390 361.159668,143.037674 
M350.551361,46.108315 
	C345.530243,41.435509 339.468719,43.077908 333.527252,42.961605 
	C333.527252,58.673656 333.527252,74.019279 333.527252,90.065208 
	C338.665955,89.730705 343.362854,90.255981 347.400635,88.866325 
	C350.037872,87.958694 353.236176,84.461075 353.566528,81.798882 
	C355.023346,70.059837 354.350464,58.302624 350.551361,46.108315 
z"/>
<path fill="#F4CDE0" opacity="1.000000" stroke="none" 
	d="
M625.838623,81.004105 
	C626.196716,61.739815 626.563782,42.975807 626.934448,24.026152 
	C633.900940,24.026152 640.341064,24.026152 647.214844,24.026152 
	C647.317383,25.527020 647.494751,26.955006 647.500916,28.383732 
	C647.679382,69.704254 647.628723,111.027702 648.183044,152.343048 
	C648.294128,160.623047 646.739197,168.116913 643.285217,175.354172 
	C642.572144,176.848236 640.650635,178.206253 639.000305,178.734818 
	C632.391602,180.851471 625.698120,182.725403 618.974731,184.450104 
	C616.786377,185.011475 614.363159,185.225861 612.129395,184.945328 
	C601.404114,183.598282 590.683228,182.169983 580.022827,180.397476 
	C578.220886,180.097870 576.098816,178.306885 575.201111,176.629028 
	C572.545959,171.666412 570.204956,166.501694 568.186890,161.244888 
	C566.971008,158.077667 565.923218,154.590591 565.928528,151.249054 
	C565.986877,114.597870 566.261536,77.947014 566.500427,41.296215 
	C566.517761,38.636620 566.789368,35.978828 566.812073,33.319084 
	C566.866699,26.918036 570.527527,23.278046 577.132019,23.563917 
	C584.605408,23.887403 592.077820,24.367580 599.526794,25.042929 
	C601.942322,25.261925 604.282593,26.310659 606.727966,26.999779 
	C606.082458,43.930691 605.423279,60.536423 604.822510,77.144272 
	C604.028687,99.090698 603.281372,121.038795 602.510681,142.986053 
	C602.464050,144.315552 602.635437,145.713577 602.284973,146.961670 
	C599.912170,155.412918 604.858948,161.194153 609.634338,166.940826 
	C610.319641,167.765488 612.283447,167.950470 613.566040,167.775406 
	C617.174194,167.282883 620.722656,166.370148 624.319702,165.773743 
	C627.006714,165.328232 627.051636,163.551010 627.018372,161.424789 
	C626.600708,134.785080 626.230164,108.144646 625.838623,81.004105 
z"/>
<path fill="#F4CDE0" opacity="1.000000" stroke="none" 
	d="
M224.418091,110.268021 
	C228.057953,82.619301 231.690094,55.434963 235.182495,28.232681 
	C235.578995,25.144285 237.269180,24.472328 239.820847,24.471897 
	C257.091644,24.468988 274.362457,24.470379 291.893311,24.470379 
	C296.931580,77.508560 299.600220,129.388794 299.990021,181.935028 
	C288.994263,182.424576 278.264679,182.902283 266.885651,183.408890 
	C266.186859,167.102798 265.507660,151.253067 264.806183,134.883820 
	C258.188110,134.478760 251.647110,134.078415 244.659698,133.650742 
	C242.843094,150.164948 241.066544,166.315155 239.216232,183.135742 
	C232.235046,183.135742 225.403214,183.135742 218.185837,183.135742 
	C220.244843,159.023483 222.306915,134.875275 224.418091,110.268021 
M244.517410,109.168335 
	C245.227722,110.048065 245.962936,111.707909 246.644470,111.686150 
	C253.054626,111.481499 259.455597,110.989586 265.807556,110.583916 
	C265.936340,94.481972 266.205750,78.856926 260.895416,63.849754 
	C260.372345,62.371597 259.277771,60.245766 258.115631,60.000996 
	C254.443695,59.227623 250.613525,59.205559 246.594559,58.872105 
	C245.885132,75.684654 245.198639,91.953880 244.517410,109.168335 
z"/>
<path fill="#F4CDE0" opacity="1.000000" stroke="none" 
	d="
M56.014328,22.691755 
	C64.702965,23.706320 72.940414,24.602116 81.086891,26.020428 
	C85.603500,26.806772 90.872025,33.177254 90.938507,37.761574 
	C91.121529,50.380978 91.001724,63.004776 91.001724,76.118652 
	C80.633476,75.536530 71.263847,75.010475 61.606148,74.468254 
	C61.606148,67.763855 61.606148,61.635799 61.606148,55.175446 
	C56.695480,55.175446 52.104797,55.175446 46.987461,55.175446 
	C42.614891,66.591988 47.763832,77.991280 46.905109,89.823112 
	C61.787941,91.178238 76.239441,92.494087 91.960266,93.925507 
	C91.400810,115.270798 90.853294,136.179901 90.300201,157.088852 
	C90.291443,157.419937 90.201180,157.748047 90.171013,158.079544 
	C89.674263,163.537247 91.127647,170.680344 88.215225,174.044800 
	C84.190613,178.694061 77.154015,181.534683 70.888786,183.206573 
	C65.339157,184.687531 59.080746,183.500397 53.135281,183.512650 
	C42.630836,183.534317 32.737228,181.460434 24.301634,174.776062 
	C22.970053,173.720917 21.618053,172.129913 21.217709,170.548187 
	C17.262636,154.921906 19.083801,139.183807 20.635916,123.465355 
	C20.680597,123.012871 21.018854,122.589371 21.470726,121.608719 
	C29.081739,122.390549 36.820786,123.185524 44.882977,124.013702 
	C44.882977,131.592270 44.882977,139.051147 44.882977,147.090393 
	C51.639477,147.878189 58.134323,148.635468 65.251083,149.465256 
	C65.251083,136.589783 65.251083,124.155060 65.251083,110.792862 
	C51.576202,109.993469 37.423229,109.166130 22.970163,108.321243 
	C22.468306,95.083603 21.898251,82.134964 21.510363,69.180870 
	C21.176517,58.031635 21.073080,46.875671 20.823654,35.723675 
	C20.683605,29.461910 23.881474,25.338110 30.152376,24.701256 
	C38.587624,23.844597 47.065544,23.408075 56.014328,22.691755 
z"/>
<path fill="#F4CDE0" opacity="1.000000" stroke="none" 
	d="
M515.854858,183.073120 
	C504.487305,183.921524 494.258301,181.317551 484.463043,176.878937 
	C482.801941,176.126251 480.877380,174.306503 480.494629,172.651337 
	C478.178467,162.634750 475.841614,152.583572 474.414215,142.417252 
	C473.689575,137.256058 474.917511,131.832703 475.151062,126.522964 
	C476.283417,100.779396 476.982880,75.008072 478.681183,49.302441 
	C479.355042,39.102772 485.330872,30.924078 493.507843,24.683010 
	C494.144196,24.197306 495.400360,24.468172 496.367371,24.479540 
	C510.181274,24.641956 524.024048,24.363081 537.793579,25.235538 
	C542.807983,25.553257 547.723389,28.453848 552.500488,30.586983 
	C553.394470,30.986170 553.780579,33.337608 553.785706,34.790287 
	C553.864075,57.080219 553.840332,79.370522 553.840332,102.481949 
	C548.578491,102.756607 542.523743,103.072647 535.919922,103.417351 
	C535.919922,88.950455 535.919922,74.723022 535.919922,60.255379 
	C526.957825,60.255379 518.529846,60.255379 509.468475,60.255379 
	C508.680542,72.794823 507.755249,85.181084 507.163544,97.583267 
	C506.553345,110.374786 506.049988,123.179131 505.893372,135.982681 
	C505.680573,153.377167 505.840973,153.377609 522.903931,154.004074 
	C524.067383,154.046783 525.228516,154.148270 526.391724,154.203430 
	C531.054321,154.424515 533.516968,152.349991 533.793457,147.674026 
	C534.204956,140.717331 534.458618,133.751312 534.793396,126.486115 
	C540.650085,126.486115 546.207886,126.486115 552.658386,126.486115 
	C553.043762,130.746246 553.781128,135.145355 553.772827,139.543060 
	C553.751648,150.685440 553.214844,161.828232 553.279297,172.968567 
	C553.299805,176.523682 551.599487,177.562836 548.881592,179.045975 
	C538.494690,184.714050 527.432922,183.817490 515.854858,183.073120 
z"/>
<path fill="#F4CEE0" opacity="1.000000" stroke="none" 
	d="
M402.415771,25.163742 
	C425.787109,25.161652 448.694733,25.161652 472.312866,25.161652 
	C471.529663,35.864571 470.794586,45.909473 470.044922,56.154175 
	C464.337372,56.154175 458.911438,56.154175 453.421692,56.154175 
	C453.421692,98.030769 453.421692,140.256409 453.421692,182.997528 
	C441.410889,182.997528 429.029572,182.997528 416.032623,182.997528 
	C416.968323,140.669479 417.907776,98.170341 418.856049,55.272655 
	C411.966492,54.572029 405.237030,53.887688 397.874176,53.138931 
	C398.317139,44.425873 398.684692,35.856976 399.303009,27.306215 
	C399.358887,26.532944 401.030670,25.876518 402.415771,25.163742 
z"/>
<path fill="#F4CEE0" opacity="1.000000" stroke="none" 
	d="
M674.304810,127.053497 
	C674.416016,102.955742 674.416016,79.337830 674.416016,55.140911 
	C668.998718,54.584087 662.280334,53.893536 654.927307,53.137745 
	C655.352051,44.432365 655.701965,35.865303 656.302368,27.315836 
	C656.356750,26.541227 658.021790,25.259115 658.941711,25.256674 
	C681.886230,25.195793 704.831177,25.273777 727.775940,25.349527 
	C728.064636,25.350479 728.352417,25.641119 729.271545,26.136816 
	C728.545349,35.892933 727.797607,45.939499 727.037354,56.153702 
	C721.324585,56.153702 715.896606,56.153702 710.421753,56.153702 
	C710.421753,98.045769 710.421753,140.263062 710.421753,182.996735 
	C698.415344,182.996735 686.036743,182.996735 674.193665,182.996735 
	C674.193665,164.629501 674.193665,146.081421 674.304810,127.053497 
z"/>
<path fill="#111222" opacity="1.000000" stroke="none" 
	d="
M350.711731,46.481308 
	C354.350464,58.302624 355.023346,70.059837 353.566528,81.798882 
	C353.236176,84.461075 350.037872,87.958694 347.400635,88.866325 
	C343.362854,90.255981 338.665955,89.730705 333.527252,90.065208 
	C333.527252,74.019279 333.527252,58.673656 333.527252,42.961605 
	C339.468719,43.077908 345.530243,41.435509 350.711731,46.481308 
z"/>
<path fill="#111222" opacity="1.000000" stroke="none" 
	d="
M244.514771,108.695724 
	C245.198639,91.953880 245.885132,75.684654 246.594559,58.872105 
	C250.613525,59.205559 254.443695,59.227623 258.115631,60.000996 
	C259.277771,60.245766 260.372345,62.371597 260.895416,63.849754 
	C266.205750,78.856926 265.936340,94.481972 265.807556,110.583916 
	C259.455597,110.989586 253.054626,111.481499 246.644470,111.686150 
	C245.962936,111.707909 245.227722,110.048065 244.514771,108.695724 
z"/>
</svg>